HIERARCHY
ROOT Hips
{
    OFFSET 0.000000 0.000000 0.000000
    CHANNELS 6 Xposition Yposition Zposition Zrotation Xrotation Yrotation
    JOINT Spine
    {
        OFFSET 0.000002 7.164412 0.000002
        CHANNELS 3 Zrotation Xrotation Yrotation
        JOINT Spine1
        {
            OFFSET -0.000001 20.126801 -0.000002
            CHANNELS 3 Zrotation Xrotation Yrotation
            JOINT Neck
            {
                OFFSET 0.000000 21.094069 0.000000
                CHANNELS 3 Zrotation Xrotation Yrotation
                JOINT Head
                {
                    OFFSET -0.000001 12.838277 1.776080
                    CHANNELS 3 Zrotation Xrotation Yrotation
                    End Site
                    {
                        OFFSET 0.000000 17.760757 0.000000
                    }
                }
            }
            JOINT LeftShoulder
            {
                OFFSET 3.550527 15.465700 -0.908803
                CHANNELS 3 Zrotation Xrotation Yrotation
                JOINT LeftArm
                {
                    OFFSET 12.513296 -0.000006 -0.000002
                    CHANNELS 3 Zrotation Xrotation Yrotation
                    JOINT LeftForeArm
                    {
                        OFFSET 24.225996 -0.000003 0.000001
                        CHANNELS 3 Zrotation Xrotation Yrotation
                        JOINT LeftHand
                        {
                            OFFSET 20.711399 -0.000005 -0.000004
                            CHANNELS 3 Zrotation Xrotation Yrotation
                            JOINT LeftHandThumb1
                            {
                                OFFSET 2.121969 -2.411331 3.375859
                                CHANNELS 3 Zrotation Xrotation Yrotation
                                JOINT LeftHandThumb2
                                {
                                    OFFSET 2.803208 0.000003 0.000001
                                    CHANNELS 3 Zrotation Xrotation Yrotation
                                    JOINT LeftHandThumb3
                                    {
                                        OFFSET 2.395929 0.000004 -0.000003
                                        CHANNELS 3 Zrotation Xrotation Yrotation
                                        End Site
                                        {
                                            OFFSET 2.127676 0.000000 0.000000
                                        }
                                    }
                                }
                            }
                            JOINT LeftHandIndex1
                            {
                                OFFSET 8.680775 0.000005 3.375860
                                CHANNELS 3 Zrotation Xrotation Yrotation
                                JOINT LeftHandIndex2
                                {
                                    OFFSET 4.218178 -0.000000 -0.000000
                                    CHANNELS 3 Zrotation Xrotation Yrotation
                                    JOINT LeftHandIndex3
                                    {
                                        OFFSET 2.109086 -0.000004 0.000002
                                        CHANNELS 3 Zrotation Xrotation Yrotation
                                        End Site
                                        {
                                            OFFSET 1.872952 0.000000 0.000000
                                        }
                                    }
                                }
                            }
                            JOINT LeftHandMiddle1
                            {
                                OFFSET 8.680778 -0.000002 1.118860
                                CHANNELS 3 Zrotation Xrotation Yrotation
                                JOINT LeftHandMiddle2
                                {
                                    OFFSET 4.640003 -0.000004 -0.000001
                                    CHANNELS 3 Zrotation Xrotation Yrotation
                                    JOINT LeftHandMiddle3
                                    {
                                        OFFSET 2.530911 0.000002 -0.000001
                                        CHANNELS 3 Zrotation Xrotation Yrotation
                                        End Site
                                        {
                                            OFFSET 2.247544 0.000000 0.000000
                                        }
                                    }
                                }
                            }
                            JOINT LeftHandRing1
                            {
                                OFFSET 8.198517 0.000004 -1.118860
                                CHANNELS 3 Zrotation Xrotation Yrotation
                                JOINT LeftHandRing2
                                {
                                    OFFSET 4.218183 -0.000002 -0.000002
                                    CHANNELS 3 Zrotation Xrotation Yrotation
                                    JOINT LeftHandRing3
                                    {
                                        OFFSET 2.109094 0.000005 -0.000000
                                        CHANNELS 3 Zrotation Xrotation Yrotation
                                        End Site
                                        {
                                            OFFSET 1.872952 0.000000 0.000000
                                        }
                                    }
                                }
                            }
                            JOINT LeftHandPinky1
                            {
                                OFFSET 7.716254 0.000002 -3.375863
                                CHANNELS 3 Zrotation Xrotation Yrotation
                                JOINT LeftHandPinky2
                                {
                                    OFFSET 3.374536 0.000002 0.000001
                                    CHANNELS 3 Zrotation Xrotation Yrotation
                                    JOINT LeftHandPinky3
                                    {
                                        OFFSET 1.687274 -0.000002 -0.000004
                                        CHANNELS 3 Zrotation Xrotation Yrotation
                                        End Site
                                        {
                                            OFFSET 1.498360 0.000000 0.000000
                                        }
                                    }
                                }
                            }
                        }
                    }
                }
            }
            JOINT RightShoulder
            {
                OFFSET -3.550529 15.465699 -0.908801
                CHANNELS 3 Zrotation Xrotation Yrotation
                JOINT RightArm
                {
                    OFFSET -12.513299 -0.000001 -0.000000
                    CHANNELS 3 Zrotation Xrotation Yrotation
                    JOINT RightForeArm
                    {
                        OFFSET -24.226000 -0.000003 -0.000001
                        CHANNELS 3 Zrotation Xrotation Yrotation
                        JOINT RightHand
                        {
                            OFFSET -20.711397 -0.000003 -0.000002
                            CHANNELS 3 Zrotation Xrotation Yrotation
                            JOINT RightHandThumb1
                            {
                                OFFSET -2.121970 -2.411331 3.375859
                                CHANNELS 3 Zrotation Xrotation Yrotation
                                JOINT RightHandThumb2
                                {
                                    OFFSET -2.803209 -0.000004 0.000004
                                    CHANNELS 3 Zrotation Xrotation Yrotation
                                    JOINT RightHandThumb3
                                    {
                                        OFFSET -2.395928 0.000004 -0.000003
                                        CHANNELS 3 Zrotation Xrotation Yrotation
                                        End Site
                                        {
                                            OFFSET -2.127676 0.000000 0.000000
                                        }
                                    }
                                }
                            }
                            JOINT RightHandIndex1
                            {
                                OFFSET -8.680779 0.000001 3.375859
                                CHANNELS 3 Zrotation Xrotation Yrotation
                                JOINT RightHandIndex2
                                {
                                    OFFSET -4.218179 0.000003 -0.000001
                                    CHANNELS 3 Zrotation Xrotation Yrotation
                                    JOINT RightHandIndex3
                                    {
                                        OFFSET -2.109090 -0.000002 0.000000
                                        CHANNELS 3 Zrotation Xrotation Yrotation
                                        End Site
                                        {
                                            OFFSET -1.872952 0.000000 0.000000
                                        }
                                    }
                                }
                            }
                            JOINT RightHandMiddle1
                            {
                                OFFSET -8.680779 -0.000002 1.118859
                                CHANNELS 3 Zrotation Xrotation Yrotation
                                JOINT RightHandMiddle2
                                {
                                    OFFSET -4.639998 0.000003 -0.000001
                                    CHANNELS 3 Zrotation Xrotation Yrotation
                                    JOINT RightHandMiddle3
                                    {
                                        OFFSET -2.530910 -0.000000 -0.000000
                                        CHANNELS 3 Zrotation Xrotation Yrotation
                                        End Site
                                        {
                                            OFFSET -2.247544 0.000000 0.000000
                                        }
                                    }
                                }
                            }
                            JOINT RightHandRing1
                            {
                                OFFSET -8.198519 -0.000004 -1.118859
                                CHANNELS 3 Zrotation Xrotation Yrotation
                                JOINT RightHandRing2
                                {
                                    OFFSET -4.218180 -0.000005 0.000000
                                    CHANNELS 3 Zrotation Xrotation Yrotation
                                    JOINT RightHandRing3
                                    {
                                        OFFSET -2.109090 0.000002 0.000002
                                        CHANNELS 3 Zrotation Xrotation Yrotation
                                        End Site
                                        {
                                            OFFSET -1.872952 0.000000 0.000000
                                        }
                                    }
                                }
                            }
                            JOINT RightHandPinky1
                            {
                                OFFSET -7.716249 0.000004 -3.375858
                                CHANNELS 3 Zrotation Xrotation Yrotation
                                JOINT RightHandPinky2
                                {
                                    OFFSET -3.374539 0.000003 -0.000000
                                    CHANNELS 3 Zrotation Xrotation Yrotation
                                    JOINT RightHandPinky3
                                    {
                                        OFFSET -1.687270 -0.000004 -0.000001
                                        CHANNELS 3 Zrotation Xrotation Yrotation
                                        End Site
                                        {
                                            OFFSET -1.498360 0.000000 0.000000
                                        }
                                    }
                                }
                            }
                        }
                    }
                }
            }
        }
    }
    JOINT LeftUpLeg
    {
        OFFSET 8.880377 0.000003 0.000001
        CHANNELS 3 Zrotation Xrotation Yrotation
        JOINT LeftLeg
        {
            OFFSET -0.000000 -40.387413 0.000001
            CHANNELS 3 Zrotation Xrotation Yrotation
            JOINT LeftFoot
            {
                OFFSET -0.000000 -36.911304 0.000000
                CHANNELS 3 Zrotation Xrotation Yrotation
                JOINT LeftToeBase
                {
                    OFFSET 0.000003 -5.772240 13.320597
                    CHANNELS 3 Zrotation Xrotation Yrotation
                    End Site
                    {
                        OFFSET 0.000000 0.000000 3.552151
                    }
                }
            }
        }
    }
    JOINT RightUpLeg
    {
        OFFSET -8.880380 -0.000003 -0.000001
        CHANNELS 3 Zrotation Xrotation Yrotation
        JOINT RightLeg
        {
            OFFSET 0.000001 -40.387405 0.000000
            CHANNELS 3 Zrotation Xrotation Yrotation
            JOINT RightFoot
            {
                OFFSET -0.000001 -36.911304 -0.000001
                CHANNELS 3 Zrotation Xrotation Yrotation
                JOINT RightToeBase
                {
                    OFFSET 0.000000 -5.772241 13.320600
                    CHANNELS 3 Zrotation Xrotation Yrotation
                    End Site
                    {
                        OFFSET 0.000000 0.000000 3.552151
                    }
                }
            }
        }
    }
}
MOTION
Frames: 5
Frame Time: 0.013889
66.357162    77.889481    -29.589430    -12.963026    1.069972    6.533312    0.137948    -9.201276    0.862645    -3.843715    11.946445    1.631431    -2.178426    -12.594389    -13.739803    12.232626    3.020752    -14.497159    5.358077    -5.876779    -1.937656    -9.354601    11.546231    -26.441998    -60.835239    37.144329    -108.622757    0.344042    -24.336077    6.301924    39.538212    26.472624    -49.380707    -17.485828    -2.399058    23.200592    -0.000000    0.000000    -0.000000    6.022316    17.906971    3.871686    5.729577    0.000007    -0.000004    5.729578    -0.000010    0.000002    1.994057    8.994647    2.552909    1.969522    -0.000003    0.000002    1.969522    -0.000007    0.000002    0.090611    -8.999983    7.893181    0.089495    -0.000003    0.000002    0.089497    -0.000000    -0.000002    -1.882612    -17.990860    15.176353    -1.790531    -0.000000    0.000001    -1.790530    0.000000    -0.000002    2.262726    5.562675    6.757613    39.793140    44.473740    5.872833    67.035149    0.484664    90.205368    17.761757    -31.682539    -0.722531    -48.399300    18.990349    48.993038    9.743462    0.932628    -23.299864    -0.000000    0.000000    -0.000000    31.370329    15.505202    10.730257    30.107372    0.000000    -0.000000    30.107372    0.000000    -0.000000    30.367769    7.781492    5.457660    30.059109    -0.000000    -0.000002    30.059120    0.000001    0.000002    30.343491    -7.783400    7.230898    30.034979    0.000000    0.000002    30.034985    -0.000002    0.000000    31.271458    -15.520710    14.626992    30.010843    -0.000001    -0.000002    30.010843    -0.000001    -0.000001    13.627359    -24.834082    3.443000    0.000001    52.479034    -0.000001    4.842720    -24.871466    -5.747389    -0.000000    2.722161    0.000000    15.612948    -42.418884    3.774938    -0.000002    75.802330    0.000002    2.269552    21.365484    -8.690314    -0.000000    0.611795    0.000000    
66.281853    77.789131    -29.592041    -13.015122    1.046614    6.504288    0.144919    -9.129974    0.913231    -3.997519    11.977563    1.714690    -2.335856    -12.645105    -13.801105    12.021452    3.035970    -14.507790    4.901392    -5.741321    -2.100733    -10.075938    11.271987    -26.186132    -61.073380    36.994148    -108.394028    -0.928221    -23.927721    5.774356    39.720879    26.314022    -49.375122    -17.469044    -2.391867    23.201286    -0.000000    0.000000    -0.000000    6.022321    17.906967    3.871683    5.729577    -0.000003    0.000004    5.729577    0.000003    -0.000000    1.827410    8.995505    2.578967    1.804925    -0.000003    0.000000    1.804923    0.000000    -0.000000    -0.159363    -8.999975    8.100937    -0.157398    0.000000    -0.000002    -0.157402    0.000000    0.000000    -2.228706    -17.987215    15.563180    -2.119728    -0.000000    0.000002    -2.119728    0.000010    -0.000002    2.118978    5.575754    6.719742    39.414566    44.780098    6.087666    66.737495    0.902538    90.387962    17.032560    -31.811016    -1.156891    -48.495281    18.882612    49.028896    9.727150    0.939655    -23.299599    -0.000000    0.000000    -0.000000    30.858593    15.584951    11.084734    29.607958    -0.000004    -0.000001    29.607952    0.000003    -0.000003    30.184347    7.795870    5.591184    29.876816    0.000000    -0.000000    29.876816    0.000000    0.000000    30.319595    -7.785275    7.259424    30.011240    0.000001    -0.000000    30.011236    0.000002    0.000000    31.409548    -15.499043    14.727439    30.145666    0.000001    0.000001    30.145672    0.000003    0.000001    13.779210    -24.992020    3.535318    0.000001    52.859631    -0.000001    4.945965    -25.036623    -5.747602    -0.000000    2.728535    -0.000000    15.892966    -42.494823    3.934174    0.000004    76.016808    -0.000002    2.108850    21.240042    -8.892651    -0.000001    0.592417    0.000000    
66.249763    77.679306    -29.589897    -13.055396    1.031569    6.463367    0.152387    -9.055647    0.968099    -4.043422    11.964560    1.776738    -2.564237    -12.649534    -13.869256    11.757456    3.072768    -14.507437    4.396315    -5.574751    -2.274242    -10.887185    11.113495    -26.005508    -61.594639    36.841095    -107.966515    -2.083792    -23.647617    5.081959    39.932869    26.113749    -49.411636    -17.434412    -2.377034    23.202728    -0.000000    0.000000    -0.000000    6.022318    17.906990    3.871681    5.729580    0.000000    -0.000000    5.729580    -0.000007    0.000005    1.635919    8.996406    2.608909    1.615793    -0.000003    0.000002    1.615788    0.000000    0.000003    -0.446603    -8.999731    8.241536    -0.441107    -0.000003    0.000003    -0.441102    0.000003    -0.000003    -2.626374    -17.982265    15.811463    -2.498000    -0.000007    -0.000001    -2.498000    0.000000    0.000000    2.170776    5.456813    6.652371    39.211273    44.850983    6.233848    66.909447    1.008562    90.429970    16.749733    -31.903753    -1.292034    -48.656269    18.705919    49.082176    9.675617    0.961844    -23.298735    -0.000000    0.000000    -0.000000    30.380371    15.658360    11.326099    29.141582    0.000000    -0.000000    29.141579    -0.000000    -0.000001    30.357668    7.782289    5.623990    30.049076    0.000002    -0.000000    30.049080    0.000002    0.000000    30.814146    -7.746167    6.822135    30.502815    0.000002    0.000001    30.502815    -0.000001    0.000002    32.239529    -15.366906    13.940085    30.956556    -0.000001    -0.000003    30.956566    0.000003    0.000004    13.872764    -25.151331    3.593293    0.000000    53.259563    -0.000000    5.040025    -25.216972    -5.732591    -0.000001    2.731667    -0.000000    16.080481    -42.589432    4.012651    -0.000000    76.264725    0.000000    2.013453    21.089666    -9.133450    0.000001    0.618332    -0.000000    
66.145096    77.584930    -29.578955    -13.123818    0.978648    6.399180    0.173282    -9.070809    1.098978    -4.447513    12.065499    1.995321    -2.410002    -12.594051    -13.890414    11.620082    3.168972    -14.566877    3.823465    -5.358761    -2.598082    -11.573023    11.007304    -26.093630    -62.085587    36.345146    -107.431343    -3.099988    -22.996832    4.285399    40.151558    25.924992    -49.402393    -17.446703    -2.382289    23.202215    -0.000000    0.000000    -0.000000    5.895777    17.910831    3.910593    5.609107    0.000003    0.000002    5.609104    -0.000007    0.000002    1.302896    8.997712    2.660985    1.286860    0.000003    0.000003    1.286860    -0.000003    -0.000002    -0.885160    -8.998940    8.208227    -0.874263    0.000000    0.000000    -0.874261    -0.000007    0.000002    -3.191279    -17.973829    15.707695    -3.035382    0.000000    -0.000001    -3.035383    -0.000003    0.000001    2.239621    5.620703    6.987871    39.454109    45.356419    6.912194    65.690681    0.231812    90.104729    16.948830    -31.502356    4.219323    -48.786987    18.653019    48.997246    9.679995    0.959958    -23.298809    -0.000000    0.000000    -0.000000    30.060411    15.706862    10.769616    28.829727    -0.000003    0.000001    28.829731    0.000006    -0.000003    30.442028    7.775644    5.291082    30.132910    0.000002    0.000001    30.132917    0.000000    0.000001    31.097517    -7.723503    6.453147    30.784506    -0.000002    -0.000001    30.784510    0.000000    0.000002    32.729862    -15.287323    13.255437    31.436104    0.000000    0.000002    31.436100    0.000000    -0.000000    14.053837    -25.260908    3.663144    -0.000002    53.635788    0.000004    5.197465    -25.375172    -5.619049    -0.000000    2.754457    0.000000    16.411783    -42.612072    4.157486    -0.000006    76.483536    0.000009    2.177100    20.792150    -9.589867    -0.000001    0.776511    -0.000000    
66.056381    77.509056    -29.549637    -13.128469    0.926583    6.297323    0.181978    -9.101129    1.150314    -4.681902    12.135912    2.099848    -2.447519    -12.438404    -13.916302    11.377833    3.222240    -14.568440    3.535368    -5.082586    -2.668930    -12.087626    11.063966    -26.053740    -62.475296    36.172230    -107.096321    -3.823681    -22.535879    3.594969    40.431137    25.699772    -49.351082    -17.394495    -2.359935    23.204378    -0.000000    0.000000    -0.000000    5.483693    17.922852    4.037372    5.216824    0.000003    -0.000002    5.216817    -0.000007    0.000000    0.801207    8.999145    2.739457    0.791347    -0.000007    0.000002    0.791342    0.000000    0.000002    -1.439105    -8.997211    8.061573    -1.421394    -0.000007    -0.000000    -1.421393    0.000003    -0.000002    -3.820611    -17.962524    15.393510    -3.634132    -0.000003    -0.000000    -3.634132    0.000000    0.000000    1.687602    5.888117    7.160903    38.772907    46.591835    8.426243    63.961292    0.085692    90.041862    15.643332    -32.859959    8.917830    -48.802101    18.971518    48.525196    9.804085    0.906525    -23.300819    -0.000000    0.000000    -0.000000    30.142681    15.694429    9.472841    28.909910    0.000003    -0.000001    28.909906    -0.000000    -0.000001    30.356537    7.782375    4.665401    30.047943    -0.000007    0.000000    30.047943    -0.000001    -0.000002    30.928989    -7.737005    6.350308    30.616976    0.000000    -0.000000    30.616976    -0.000004    -0.000001    32.474174    -15.328959    13.027602    31.185991    -0.000002    0.000000    31.185987    -0.000002    -0.000001    14.181046    -25.277750    3.780825    0.000002    53.885994    -0.000004    5.244868    -25.466860    -5.628157    0.000000    2.750829    -0.000000    16.686508    -42.591003    4.357849    0.000004    76.669762    -0.000005    2.533746    20.439285    -10.084085    0.000000    1.041429    0.000000    
